<svg xmlns="http://www.w3.org/2000/svg" viewBox="0 0 64 64" id="Announcement">
  <path fill="#ecf1ec" d="M48 11.781h-2.5a23.9 23.9 0 0 1-16.899 7H11.5a3 3 0 0 0-3 3v9a3 3 0 0 0 3 3h17.101a23.898 23.898 0 0 1 16.899 7H48" class="colorecf0f1 svgShape"></path>
  <ellipse cx="48" cy="26.281" fill="#c9e4ca" rx="2.5" ry="14.5" class="colore0e2e2 svgShape"></ellipse>
  <path fill="#3ce742" d="M17.5 33.781h-6a3 3 0 0 1-3-3v-9a3 3 0 0 1 3-3h6v15z" class="colore74c3c svgShape"></path>
  <path fill="#2c502d" d="M17.5 18.781h3v15h-3zm12 15.023c1.01.038 2.012.141 3 .304V18.455a23.78 23.78 0 0 1-3 .304v15.045zm-9.937 18.415H14.5V36.781h9.063zM25.5 33.781v1a2 2 0 0 1-2 2h-9a2 2 0 0 1-2-2v-1m-4-6h-2a2 2 0 0 1-2-2v-2a2 2 0 0 1 2-2h2v6zm37.088-4.498a3 3 0 0 1-.035 5.999M32.5 18.531v15.5m-3-.25v-15" class="color2c3e50 svgShape"></path>
  <path fill="#213a22" d="M17.5 34.281h-6c-1.93 0-3.5-1.57-3.5-3.5v-9c0-1.93 1.57-3.5 3.5-3.5h6a.5.5 0 0 1 .5.5v15a.5.5 0 0 1-.5.5zm-6-15a2.502 2.502 0 0 0-2.5 2.5v9c0 1.379 1.121 2.5 2.5 2.5H17v-14h-5.5z" class="color212e3a svgShape"></path>
  <path fill="#213a22" d="M20.5 34.281h-3a.5.5 0 0 1-.5-.5v-15a.5.5 0 0 1 .5-.5h3a.5.5 0 0 1 .5.5v15a.5.5 0 0 1-.5.5zm-2.5-1h2v-14h-2v14zm1.563 19.438H14.5a.5.5 0 0 1-.5-.5V36.781a.5.5 0 0 1 .5-.5h9.063a.5.5 0 0 1 .485.625l-4 15.438a.505.505 0 0 1-.485.375zm-4.563-1h4.176l3.74-14.438H15v14.438z" class="color212e3a svgShape"></path>
  <path fill="#213a22" d="M23.5 37.281h-9a2.502 2.502 0 0 1-2.5-2.5v-1a.5.5 0 0 1 1 0v1c0 .827.673 1.5 1.5 1.5h9c.827 0 1.5-.673 1.5-1.5v-1a.5.5 0 0 1 1 0v1c0 1.379-1.121 2.5-2.5 2.5zm-15-9h-2a2.502 2.502 0 0 1-2.5-2.5v-2c0-1.379 1.121-2.5 2.5-2.5h2a.5.5 0 0 1 .5.5v6a.5.5 0 0 1-.5.5zm-2-6c-.827 0-1.5.673-1.5 1.5v2c0 .827.673 1.5 1.5 1.5H8v-5H6.5zm39.054 7.5a.5.5 0 0 1-.009-1 2.512 2.512 0 0 0 2.455-2.5 2.486 2.486 0 0 0-2.427-2.499.5.5 0 0 1 .03-1A3.483 3.483 0 0 1 49 26.281a3.517 3.517 0 0 1-3.438 3.5h-.008zM32.5 34.531a.5.5 0 0 1-.5-.5v-15.5a.5.5 0 0 1 1 0v15.5a.5.5 0 0 1-.5.5zm-3-.25a.5.5 0 0 1-.5-.5v-15a.5.5 0 0 1 1 0v15a.5.5 0 0 1-.5.5z" class="color212e3a svgShape"></path>
  <path fill="#213a22" d="M48 41.281h-2.5a.504.504 0 0 1-.354-.146A23.246 23.246 0 0 0 28.6 34.281H11.5c-1.93 0-3.5-1.57-3.5-3.5v-9c0-1.93 1.57-3.5 3.5-3.5h17.101c6.25 0 12.126-2.434 16.546-6.854a.5.5 0 0 1 .354-.146H48a.5.5 0 0 1 0 1h-2.294c-4.592 4.516-10.657 7-17.105 7H11.5a2.502 2.502 0 0 0-2.5 2.5v9c0 1.379 1.121 2.5 2.5 2.5h17.101c6.448 0 12.514 2.484 17.105 7H48a.5.5 0 0 1 0 1z" class="color212e3a svgShape"></path>
  <path fill="#213a22" d="M14.5 22.281h-3a.5.5 0 0 1 0-1h3a.5.5 0 0 1 0 1zm12 0h-3a.5.5 0 0 1 0-1h3a.5.5 0 0 1 0 1zm-12 3h-3a.5.5 0 0 1 0-1h3a.5.5 0 0 1 0 1zm0 3h-3a.5.5 0 0 1 0-1h3a.5.5 0 0 1 0 1zm33.5 13c-2.966 0-3-14.388-3-15s.034-15 3-15 3 14.388 3 15-.034 15-3 15zm-.013-29.001C47.29 12.507 46 17.381 46 26.281s1.29 13.774 2.013 14.001c.697-.226 1.987-5.1 1.987-14.001s-1.29-13.774-2.013-14.001zm9.477 20.945a.5.5 0 0 1-.433-.25 5.277 5.277 0 0 0-4.568-2.637.5.5 0 0 1 0-1 6.274 6.274 0 0 1 5.433 3.137.498.498 0 0 1-.432.75zm-5-10a.5.5 0 0 1 0-1 5.277 5.277 0 0 0 4.568-2.637.501.501 0 0 1 .866.5 6.288 6.288 0 0 1-2.296 2.296 6.286 6.286 0 0 1-3.138.841zm7.036 3.556h-7a.5.5 0 0 1 0-1h7a.5.5 0 0 1 0 1z" class="color212e3a svgShape"></path>
</svg>
