<svg xmlns="http://www.w3.org/2000/svg" viewBox="0 0 130 130" id="Announce">
  <circle cx="65" cy="65" r="64" fill="#49e04f" class="colore05b49 svgShape"></circle>
  <path d="M129,65c0-.238-.01538-.47229-.01794-.70965L108.74,44.04829l-1.73,1.36005-7.18-7.18a1.29308,1.29308,0,0,0-1-.47,1.34243,1.34243,0,0,0-1.33,1.36v.2c-2.61,2.8-8.97,8.52-18.37,9.67l-.36-.36H72.21a1.40011,1.40011,0,0,0-1.39,1.42v.65L56.8,36.6783c-3.45-1.4-13.04-1.83-16.29,2.41-3.03,3.95-.27,11.67,1.77,14.73a.0098.0098,0,0,1,.01.01,5.426,5.426,0,0,0,.41.56c.07.09.13995.18.2.27a2.96969,2.96969,0,0,1,.12994,3.77c-.45.6-.85,1.25-1.24,1.89l-1.62,2.69c-2.36,2.12-4.61,5.83-6.32,9.88a37.55053,37.55053,0,0,0-3.04,11.9v11.75l32.41687,32.41687C63.81768,128.97133,64.40533,129,65,129A64,64,0,0,0,129,65Z" opacity=".1" fill="#000000" class="color000000 svgShape"></path>
  <polygon fill="#62fc68" points="73.614 57.562 70.692 61.776 73.36 62.5 73.614 60.042 73.614 57.562" class="colorfcd462 svgShape"></polygon>
  <polygon fill="#2f5931" points="75.936 66.789 73.614 66.789 73.614 53.588 76.923 53.588 75.936 66.789" class="color2f4859 svgShape"></polygon>
  <path fill="#c9e4ca" d="M99.21523,52.27488,99.22,52.095h-.00968L98.82669,37.7603s-8.574,11.67322-23.48879,11.43424v6.16072c14.91482-.239,23.48879,11.43424,23.48879,11.43424l.38366-14.33465H99.22Z" class="colord5d6db svgShape"></path>
  <path fill="#4d7d4f" d="M98.82666 37.76033a1.34392 1.34392 0 0 0-1.32913 1.35829V66.55341a1.32936 1.32936 0 1 0 2.65808 0V39.11862A1.34387 1.34387 0 0 0 98.82666 37.76033zM72.21082 48.62527a1.40625 1.40625 0 0 0-1.39067 1.42128v4.54753a1.40625 1.40625 0 0 0 1.39067 1.42128h6.5563V48.62527z" class="color4d5c7d svgShape"></path>
  <path fill="#62fc68" d="M81.06268 63.98006V63.98a.92062.92062 0 0 0-1.124-.53291.9234.9234 0 0 0 .47454-1.17882v0a.92076.92076 0 0 0-1.1242-.53286.92335.92335 0 0 0 .47453-1.17891V60.5564a.922.922 0 0 0-1.14168-.52962.922.922 0 0 0 .46257-1.17113v-.00006a.92872.92872 0 0 0-1.20716-.51765l-5.43537 2.17277A4.46152 4.46152 0 0 0 69.78655 63.506L66.89627 74.36534l6.28651.49165 2.50236-7.35246L80.545 65.18721A.92864.92864 0 0 0 81.06268 63.98006zM59.33922 50.578s1.55386 0 1.48413-1.20024-2.33079-2.81881-2.33079-2.81881c.498-2.53992-1.26495-5.64264-1.26495-5.64264a.86156.86156 0 0 0 .05476-.08965 3.30776 3.30776 0 0 0 .52749-1.31092.92666.92666 0 0 1-.87715-.20852A9.46056 9.46056 0 0 0 49.76792 36.799a10.69091 10.69091 0 0 0-8.31237 3.36534c-2.33205 2.68975-.81345 5.30154-.23045 8.31144a12.3428 12.3428 0 0 1 .20758 2.3661.89359.89359 0 0 1 1.2658.84843 4.99535 4.99535 0 0 1-.41573 2.1291c.14165.21249.28.40366.41246.5685.07472.09461.14445.18425.20917.2739a2.9551 2.9551 0 0 1 .12186 3.76577c-.44941.60514-.84271 1.25-1.23236 1.89525l-4.329 7.16867 15.94541 2.51906-.24675-2.03847a20.08357 20.08357 0 0 1 1.20488-9.65344l.00052-.00133c2.88859-1.05087 3.63063-1.23512 4.20835-2.03693.57271-.80681-.12453-1.24008-.12453-1.5887s.67732-.5578.69724-1.05083a.91165.91165 0 0 0-.38846-.762l.61756-.68228C58.14394 51.066 59.33922 50.578 59.33922 50.578z" class="colorfcd462 svgShape"></path>
  <path fill="#3a6a3c" d="M42.6952,54.38787c.07472.09463.14445.18427.2092.27391a40.834,40.834,0,0,0,2.65943-5.41851c1.73315-4.33283,3.19236-3.23218,4.43244-2.04688s1.22017,3.91946,1.22017,3.91946h1.73312c-1.09567-5.74225.17928-6.29007,1.54885-8.75031a2.66918,2.66918,0,0,1,2.784-1.53891,3.24215,3.24215,0,0,0-.47811-4.14355C53.348,35.27367,43.756,34.85033,40.5089,39.08354,37.26675,43.3118,40.65331,51.84793,42.6952,54.38787Z" class="color3a556a svgShape"></path>
  <path fill="#4d7d4f" d="M59.49175,84.78974c-.22228-4.65342-1.92552-13.075-6.41524-17.53576-3.23618-3.21562-12.90325-4.24753-12.90325-4.24753-4.72555,4.23-9.02067,14.86755-9.36162,21.78329V96.53388h28.21V84.78974Z" class="color4d5c7d svgShape"></path>
  <path fill="#475b48" d="M67.67381,67.79335,60.82565,84.78974,47.423,74.243q-.0983-.046-.196-.09017c-7.87132-3.56253-13.6147,7.93889-6.10208,12.20621L59.0519,96.542a5.23116,5.23116,0,0,0,7.182-2.05452L76.60086,70.01054Z" class="color474c5b svgShape"></path>
  <polygon fill="#c9e4ca" points="109.797 46.011 103.507 48.136 103.507 48.136 108.742 44.053 109.797 46.011" class="colord5d6db svgShape"></polygon>
  <polygon fill="#c9e4ca" points="110.118 55.604 103.828 53.479 103.828 53.479 109.063 57.562 110.118 55.604" class="colord5d6db svgShape"></polygon>
  <polygon fill="#c9e4ca" points="112.689 49.469 104.825 50.908 104.825 50.908 112.723 52.147 112.689 49.469" class="colord5d6db svgShape"></polygon>
</svg>
