<svg xmlns="http://www.w3.org/2000/svg" enable-background="new 0 0 64 64" viewBox="0 0 64 64" id="Bell">
  <path fill="#27bc2d" d="M32.953,10.69C32.984,10.465,33,10.234,33,10c0-2.761-2.239-5-5-5s-5,2.239-5,5
		c0,0.237,0.016,0.469,0.048,0.697" class="colorbc9827 svgShape"></path>
  <path fill="#57f95d" d="M50,45L50,45c-2.621-4.587-4-9.779-4-15.062v-0.77l-9.896-17.245C33.668,10.693,30.915,10,28,10h0h0
		c-9.941,0-18,8.059-18,18v1.938C10,35.221,8.621,40.413,6,45l0,0H50z" class="colorf9d157 svgShape"></path>
  <path fill="#78fb7d" d="M36.104,11.923C33.668,10.693,30.915,10,28,10c-4.617,0-8.814,1.753-12,4.61V36c0,3.314,2.686,6,6,6
		h26.514C46.869,38.202,46,34.101,46,29.938v-0.77L36.104,11.923z" class="colorfbe478 svgShape"></path>
  <path fill="#27bc2d" d="M53,48c0-1.657-1.343-3-3-3H6h0c-1.657,0-3,1.343-3,3v4c0,1.657,1.343,3,3,3h44c1.657,0,3-1.343,3-3
		V48z" class="colorbc9827 svgShape"></path>
  <path fill="#32e739" d="M50,45H6v4c0,1.657,1.343,3,3,3h44v-4C53,46.343,51.657,45,50,45z" class="colore7b532 svgShape"></path>
  <path fill="#24af29" d="M21,55c0,3.866,3.134,7,7,7s7-3.134,7-7" class="coloraf8d24 svgShape"></path>
  <rect width="11" height="2" x="33" y="50" fill="#c9e4ca" class="colorf2f2f2 svgShape"></rect>
  <rect width="2" height="2" x="46" y="50" fill="#c9e4ca" class="colorf2f2f2 svgShape"></rect>
  <circle cx="42" cy="20" r="10" fill="#3bcc40" class="colorcc3b46 svgShape"></circle>
  <path fill="#55d85a" d="M42,10c-2.251,0-4.321,0.753-5.992,2.008C34.753,13.679,34,15.749,34,18c0,5.523,4.477,10,10,10
		c2.251,0,4.321-0.753,5.992-2.008C51.247,24.321,52,22.251,52,20C52,14.477,47.523,10,42,10z" class="colord85565 svgShape"></path>
  <rect width="2" height="6" x="41" y="1" fill="#3bcc40" class="colorcc3b46 svgShape"></rect>
  <rect width="6" height="2" x="55" y="19" fill="#3bcc40" class="colorcc3b46 svgShape"></rect>
  <rect width="7.071" height="2" x="50.964" y="6.5" fill="#3bcc40" transform="rotate(-45.001 54.5 7.5)" class="colorcc3b46 svgShape"></rect>
  <path fill="#c9e4ca" d="M43,24v-9c0-0.404-0.244-0.77-0.617-0.924c-0.375-0.157-0.804-0.069-1.09,0.217l-2,2l1.414,1.414
		L41,17.414V24h-2v2h6v-2H43z" class="colorf2f2f2 svgShape"></path>
  <path d="M50.636,44.064C48.263,39.742,47,34.872,47,29.938v-0.152c3.556-1.825,6-5.521,6-9.786c0-6.065-4.935-11-11-11
		c-2.205,0-4.256,0.658-5.979,1.78c-0.662-0.309-1.336-0.579-2.022-0.807C33.984,6.677,31.299,4,28,4
		c-3.304,0-5.992,2.684-5.999,5.986C14.458,12.505,9,19.621,9,28v1.938c0,4.935-1.263,9.805-3.636,14.127
		C3.462,44.371,2,46.012,2,48v4c0,2.206,1.794,4,4,4h14.069c0.495,3.94,3.859,7,7.931,7s7.436-3.06,7.931-7H50c2.206,0,4-1.794,4-4
		v-4C54,46.012,52.538,44.371,50.636,44.064z M51,20c0,4.963-4.038,9-9,9s-9-4.037-9-9s4.038-9,9-9S51,15.037,51,20z M28,6
		c2.005,0,3.654,1.487,3.941,3.414C30.657,9.144,29.342,9,28,9c-1.352,0-2.669,0.147-3.941,0.417C24.344,7.489,25.994,6,28,6z
		 M11,29.938V28c0-9.374,7.626-17,17-17c2.176,0,4.273,0.406,6.258,1.195C32.248,14.19,31,16.951,31,20c0,6.065,4.935,11,11,11
		c1.048,0,2.059-0.157,3.021-0.432c0.095,4.667,1.23,9.265,3.32,13.432H7.659C9.844,39.645,11,34.821,11,29.938z M28,61
		c-2.967,0-5.431-2.167-5.91-5H33.91C33.431,58.833,30.967,61,28,61z M52,52c0,1.103-0.897,2-2,2H6c-1.103,0-2-0.897-2-2v-4
		c0-1.103,0.897-2,2-2h44c1.103,0,2,0.897,2,2V52z" fill="#000000" class="color000000 svgShape"></path>
  <rect width="11" height="2" x="33" y="50" fill="#000000" class="color000000 svgShape"></rect>
  <rect width="2" height="2" x="46" y="50" fill="#000000" class="color000000 svgShape"></rect>
  <rect width="2" height="6" x="41" y="1" fill="#000000" class="color000000 svgShape"></rect>
  <rect width="6" height="2" x="55" y="19" fill="#000000" class="color000000 svgShape"></rect>
  <rect width="7.071" height="2" x="50.964" y="6.5" transform="rotate(-45.001 54.5 7.5)" fill="#000000" class="color000000 svgShape"></rect>
  <path d="M45,24h-2v-9c0-0.404-0.244-0.77-0.617-0.924c-0.375-0.157-0.804-0.069-1.09,0.217l-2,2l1.414,1.414L41,17.414V24h-2v2h6
		V24z" fill="#000000" class="color000000 svgShape"></path>
</svg>
